<?xml version="1.0" encoding="UTF-8"?> <svg xmlns="http://www.w3.org/2000/svg" id="Capa_1" height="512" viewBox="0 0 512 512" width="512"><g><path d="m31.867 0c-17.6 0-31.867 14.267-31.867 31.867v448.133l64-6.4 21.671-249.6-21.671-224z" fill="#fe8d00"></path><path d="m320 192-11.49 32 11.49 32v192l-160 16-96 9.6v-473.6h256z" fill="#4f72af"></path><path d="m320 192-11.49 32 11.49 32v192l-160 16v-464h160z" fill="#365c89"></path><path d="m210.324 192h109.676v64h-109.676z" fill="#fd4f52"></path><path d="m320 448v64h-288c-17.67 0-32-14.33-32-32 0-8.84 3.58-16.84 9.37-22.63s13.79-9.37 22.63-9.37z" fill="#fff5f5"></path><path d="m160 448h160v63.66h-160z" fill="#ece6f2"></path><path d="m402.88 466.88h30v45.12h-30z" fill="#fd4f52"></path><path d="m417.88 466.88h15v45.12h-15z" fill="#ca2d60"></path><path d="m402.88 0h30v45.12h-30z" fill="#4f72af"></path><path d="m417.88 0h15v45.12h-15z" fill="#365c89"></path><path d="m512 195.75h-30v-105.5h-45.25v-30h75.25z" fill="#365c89"></path><path d="m449.88 120.5-13.13 15 13.13 15v30.25l-13.13 15 13.13 15v242.69c0 17.68-14.33 32-32 32-17.68 0-32-14.32-32-32v-242.69l14.22-15-14.22-15v-30.25l14.22-15-14.22-15v-88.5h64z" fill="#ffb900"></path><path d="m449.88 120.5-13.13 15 13.13 15v30.25l-13.13 15 13.13 15v242.69c0 17.68-14.33 32-32 32v-453.44h32z" fill="#fe8d00"></path><path d="m385.88 120.5h64v30h-64z" fill="#ffe46c"></path><path d="m385.88 180.75h64v30h-64z" fill="#ffe46c"></path><g fill="#ffb900"><path d="m417.88 120.5h32v30h-32z"></path><path d="m417.88 180.75h32v30h-32z"></path></g></g></svg> 